<?xml version="1.0" encoding="UTF-8" standalone="no"?>
<svg
   xmlns:dc="http://purl.org/dc/elements/1.1/"
   xmlns:cc="http://creativecommons.org/ns#"
   xmlns:rdf="http://www.w3.org/1999/02/22-rdf-syntax-ns#"
   xmlns:svg="http://www.w3.org/2000/svg"
   xmlns="http://www.w3.org/2000/svg"
   id="svg1674"
   version="1.1"
   viewBox="0 0 31.81167 41.998738"
   height="41.998737mm"
   width="31.81167mm">
  <defs
     id="defs1668" />
  <metadata
     id="metadata1671">
    <rdf:RDF>
      <cc:Work
         rdf:about="">
        <dc:format>image/svg+xml</dc:format>
        <dc:type
           rdf:resource="http://purl.org/dc/dcmitype/StillImage" />
        <dc:title></dc:title>
      </cc:Work>
    </rdf:RDF>
  </metadata>
  <g
     transform="translate(-109.9632,-28.834988)"
     id="layer1">
    <g
       id="g2810"
       transform="matrix(0.35277777,0,0,-0.35277777,-21.89607,137.57429)">
      <g
         id="g194"
         transform="translate(409.7603,221.9307)">
        <path
           d="m 0,0 c -0.11,0 -0.223,0.012 -0.335,0.038 -7.732,1.766 -14.799,5.679 -20.437,11.317 -0.586,0.586 -0.586,1.536 0,2.122 0.585,0.586 1.535,0.586 2.121,0 C -13.413,8.238 -6.848,4.603 0.333,2.962 1.141,2.778 1.646,1.974 1.461,1.166 1.303,0.471 0.685,0 0,0"
           style="fill:#00a1d8;fill-opacity:1;fill-rule:nonzero;stroke:none"
           id="path196" />
      </g>
      <g
         id="g198"
         transform="translate(427.9585,221.9287)">
        <path
           d="m 0,0 c -0.685,0 -1.303,0.471 -1.462,1.167 -0.184,0.808 0.321,1.611 1.13,1.796 7.185,1.638 13.751,5.273 18.99,10.513 7.415,7.414 11.498,17.271 11.498,27.753 0,10.483 -4.084,20.341 -11.5,27.756 -0.586,0.586 -0.586,1.536 0,2.121 0.586,0.586 1.535,0.586 2.121,0 C 28.76,63.125 33.156,52.514 33.156,41.229 33.157,29.945 28.761,19.335 20.779,11.354 15.141,5.715 8.071,1.802 0.334,0.037 0.223,0.012 0.11,0 0,0"
           style="fill:#00a1d8;fill-opacity:1;fill-rule:nonzero;stroke:none"
           id="path200" />
      </g>
      <g
         id="g202"
         transform="translate(452.8921,192.0205)">
        <path
           d="m 0,0 h -68.062 c -1.104,0 -2,0.896 -2,2 0,1.104 0.896,2 2,2 H 0 C 1.104,4 2,3.104 2,2 2,0.896 1.104,0 0,0"
           style="fill:#754c29;fill-opacity:1;fill-rule:nonzero;stroke:none"
           id="path204" />
      </g>
      <path
         d="m 411.763,196.021 h 14.196 v 55.515 h -14.196 z m 16.196,-4 h -18.196 c -1.104,0 -2,0.895 -2,2 v 59.514 c 0,1.105 0.896,2 2,2 h 18.196 c 1.105,0 2,-0.895 2,-2 v -59.514 c 0,-1.105 -0.895,-2 -2,-2"
         style="fill:#754c29;fill-opacity:1;fill-rule:nonzero;stroke:none"
         id="path206" />
      <g
         id="g208"
         transform="translate(452.8921,263.1616)">
        <path
           d="m 0,0 c 0,-18.799 -15.234,-34.034 -34.031,-34.034 -18.796,0 -34.031,15.235 -34.031,34.034 0,18.793 15.235,34.032 34.031,34.032 C -15.234,34.032 0,18.793 0,0"
           style="fill:#39b54a;fill-opacity:1;fill-rule:nonzero;stroke:none"
           id="path210" />
      </g>
      <g
         id="g212"
         transform="translate(418.8608,295.1938)">
        <path
           d="m 0,0 c -17.661,0 -32.03,-14.37 -32.03,-32.032 0,-17.664 14.369,-32.034 32.03,-32.034 17.662,0 32.031,14.37 32.031,32.034 C 32.031,-14.37 17.662,0 0,0 m 0,-68.066 c -19.867,0 -36.03,16.165 -36.03,36.034 C -36.03,-12.164 -19.867,4 0,4 19.868,4 36.031,-12.164 36.031,-32.032 36.031,-51.901 19.868,-68.066 0,-68.066"
           style="fill:#754c29;fill-opacity:1;fill-rule:nonzero;stroke:none"
           id="path214" />
      </g>
      <g
         id="g216"
         transform="translate(379.6431,272.7612)">
        <path
           d="M 0,0 C -0.135,0 -0.271,0.019 -0.408,0.057 -1.205,0.282 -1.67,1.11 -1.444,1.908 0.503,8.816 4.232,15.168 9.34,20.276 21.029,31.965 38.59,35.767 54.075,29.96 54.852,29.67 55.244,28.805 54.953,28.029 54.663,27.254 53.796,26.86 53.022,27.152 38.636,32.545 22.321,29.015 11.461,18.155 6.716,13.409 3.252,7.509 1.442,1.093 1.256,0.432 0.654,0 0,0"
           style="fill:#ff9518;fill-opacity:1;fill-rule:nonzero;stroke:none"
           id="path218" />
      </g>
      <g
         id="g220"
         transform="translate(378.1206,260.6582)">
        <path
           d="M 0,0 C -0.811,0 -1.479,0.647 -1.499,1.463 -1.543,3.254 -1.472,5.072 -1.286,6.869 -1.2,7.693 -0.464,8.29 0.36,8.207 1.184,8.122 1.783,7.385 1.698,6.561 1.526,4.891 1.459,3.201 1.501,1.537 1.521,0.709 0.866,0.021 0.038,0 0.025,0 0.013,0 0,0"
           style="fill:#ff9518;fill-opacity:1;fill-rule:nonzero;stroke:none"
           id="path222" />
      </g>
      <g
         id="g224"
         transform="translate(415.9175,198.8848)">
        <path
           d="m 0,0 c -0.828,0 -1.5,0.672 -1.5,1.5 v 21.832 c 0,0.828 0.672,1.5 1.5,1.5 0.828,0 1.5,-0.672 1.5,-1.5 V 1.5 C 1.5,0.672 0.828,0 0,0"
           style="fill:#ff9518;fill-opacity:1;fill-rule:nonzero;stroke:none"
           id="path226" />
      </g>
    </g>
  </g>
</svg>
