<?xml version="1.0" encoding="UTF-8" standalone="no"?>
<svg
   xmlns:dc="http://purl.org/dc/elements/1.1/"
   xmlns:cc="http://creativecommons.org/ns#"
   xmlns:rdf="http://www.w3.org/1999/02/22-rdf-syntax-ns#"
   xmlns:svg="http://www.w3.org/2000/svg"
   xmlns="http://www.w3.org/2000/svg"
   xmlns:sodipodi="http://sodipodi.sourceforge.net/DTD/sodipodi-0.dtd"
   xmlns:inkscape="http://www.inkscape.org/namespaces/inkscape"
   inkscape:export-ydpi="768"
   inkscape:export-xdpi="768"
   inkscape:export-filename="C:\Users\RainBoyz\Desktop\EXP\FILEDLINE ICON\Forest.png"
   width="48pt"
   height="48pt"
   viewBox="0 0 16.933334 16.933333"
   version="1.1"
   id="svg979"
   inkscape:version="1.0 (4035a4fb49, 2020-05-01)"
   sodipodi:docname="Forest.svg">
  <defs
     id="defs973" />
  <sodipodi:namedview
     id="base"
     pagecolor="#ffffff"
     bordercolor="#666666"
     borderopacity="1.0"
     inkscape:pageopacity="0.0"
     inkscape:pageshadow="2"
     inkscape:zoom="6.1023825"
     inkscape:cx="17.814841"
     inkscape:cy="27.361835"
     inkscape:document-units="pt"
     inkscape:current-layer="layer1"
     showgrid="false"
     units="pt"
     inkscape:window-width="1366"
     inkscape:window-height="715"
     inkscape:window-x="-8"
     inkscape:window-y="-8"
     inkscape:window-maximized="1"
     inkscape:document-rotation="0"
     inkscape:snap-bbox="true"
     inkscape:bbox-nodes="true"
     inkscape:snap-nodes="false">
    <inkscape:grid
       type="xygrid"
       id="grid1526" />
    <sodipodi:guide
       position="0.97013909,15.963209"
       orientation="56.666615,0"
       id="guide1528"
       inkscape:locked="false" />
    <sodipodi:guide
       position="0.97013909,0.97016731"
       orientation="0,56.666667"
       id="guide1530"
       inkscape:locked="false" />
    <sodipodi:guide
       position="15.963195,0.97016731"
       orientation="-56.666615,0"
       id="guide1532"
       inkscape:locked="false" />
    <sodipodi:guide
       position="15.963195,15.963209"
       orientation="0,-56.666667"
       id="guide1534"
       inkscape:locked="false" />
  </sodipodi:namedview>
  <metadata
     id="metadata976">
    <rdf:RDF>
      <cc:Work
         rdf:about="">
        <dc:format>image/svg+xml</dc:format>
        <dc:type
           rdf:resource="http://purl.org/dc/dcmitype/StillImage" />
        <dc:title></dc:title>
      </cc:Work>
    </rdf:RDF>
  </metadata>
  <g
     inkscape:label="Layer 1"
     inkscape:groupmode="layer"
     id="layer1"
     transform="translate(0,-280.06668)">
    <g
       id="g573"
       style="display:inline"
       transform="matrix(1.2103838,0,0,1.2103838,54.070019,-116.55599)">
      <g
         id="g1173">
        <path
           id="path303"
           style="color:#000000;font-style:normal;font-variant:normal;font-weight:normal;font-stretch:normal;font-size:medium;line-height:normal;font-family:sans-serif;font-variant-ligatures:normal;font-variant-position:normal;font-variant-caps:normal;font-variant-numeric:normal;font-variant-alternates:normal;font-variant-east-asian:normal;font-feature-settings:normal;font-variation-settings:normal;text-indent:0;text-align:start;text-decoration:none;text-decoration-line:none;text-decoration-style:solid;text-decoration-color:#000000;letter-spacing:normal;word-spacing:normal;text-transform:none;writing-mode:lr-tb;direction:ltr;text-orientation:mixed;dominant-baseline:auto;baseline-shift:baseline;text-anchor:start;white-space:normal;shape-padding:0;shape-margin:0;inline-size:0;clip-rule:nonzero;display:inline;overflow:visible;visibility:visible;isolation:auto;mix-blend-mode:normal;color-interpolation:sRGB;color-interpolation-filters:linearRGB;solid-color:#000000;solid-opacity:1;vector-effect:none;fill:#9a605c;fill-opacity:1;fill-rule:nonzero;stroke:none;stroke-width:0.529167;stroke-linecap:round;stroke-linejoin:round;stroke-miterlimit:4;stroke-dasharray:none;stroke-dashoffset:0;stroke-opacity:1;color-rendering:auto;image-rendering:auto;shape-rendering:auto;text-rendering:auto;enable-background:accumulate;stop-color:#000000"
           d="m -38.501953,336.63281 c -0.201739,-0.007 -0.294425,0.20415 -0.261979,0.37662 0.0134,0.43039 0.04276,0.8607 0.01674,1.29127 -0.0091,0.44674 -0.03954,0.89324 -0.100468,1.33602 -0.212687,0.29162 -0.577005,0.48823 -0.665668,0.86259 -0.08236,0.20214 0.113289,0.40655 0.317183,0.36787 1.035433,0 2.070866,0 3.106299,0 0.275419,0.002 0.319827,-0.33213 0.19461,-0.51869 -0.135795,-0.29211 -0.434387,-0.45664 -0.610101,-0.71776 -0.0262,-0.1705 -0.04917,-0.39857 -0.06507,-0.5907 -0.03043,-0.44964 -0.04938,-0.90109 -0.04447,-1.35168 0.0072,-0.27522 0.02359,-0.5505 0.0249,-0.82568 -0.01777,-0.18705 -0.213914,-0.24952 -0.374132,-0.23025 -0.512616,1.3e-4 -1.025232,2.6e-4 -1.537848,3.9e-4 z" />
        <path
           id="path1152"
           style="color:#000000;font-style:normal;font-variant:normal;font-weight:normal;font-stretch:normal;font-size:medium;line-height:normal;font-family:sans-serif;font-variant-ligatures:normal;font-variant-position:normal;font-variant-caps:normal;font-variant-numeric:normal;font-variant-alternates:normal;font-variant-east-asian:normal;font-feature-settings:normal;font-variation-settings:normal;text-indent:0;text-align:start;text-decoration:none;text-decoration-line:none;text-decoration-style:solid;text-decoration-color:#000000;letter-spacing:normal;word-spacing:normal;text-transform:none;writing-mode:lr-tb;direction:ltr;text-orientation:mixed;dominant-baseline:auto;baseline-shift:baseline;text-anchor:start;white-space:normal;shape-padding:0;shape-margin:0;inline-size:0;clip-rule:nonzero;display:inline;overflow:visible;visibility:visible;isolation:auto;mix-blend-mode:normal;color-interpolation:sRGB;color-interpolation-filters:linearRGB;solid-color:#000000;solid-opacity:1;vector-effect:none;fill:#66342d;fill-opacity:1;fill-rule:nonzero;stroke:none;stroke-width:0.529167;stroke-linecap:round;stroke-linejoin:round;stroke-miterlimit:4;stroke-dasharray:none;stroke-dashoffset:0;stroke-opacity:1;color-rendering:auto;image-rendering:auto;shape-rendering:auto;text-rendering:auto;enable-background:accumulate;stop-color:#000000"
           d="m -36.851497,336.63221 c -0.557585,7.2e-4 -1.115213,-7.5e-4 -1.672772,0.001 -0.152654,0.008 -0.265269,0.1613 -0.24216,0.30892 0.0099,0.30383 0.02388,0.60765 0.03113,0.91148 -0.02981,0.13122 0.0321,0.24451 0.123386,0.33553 0.116795,0.10586 0.269642,0.16216 0.416298,0.21418 0.462132,0.1516 0.991378,0.0912 1.40245,-0.17031 0.08443,-0.0817 0.201335,-0.18126 0.176922,-0.31066 -0.0059,-0.20854 0.01059,-0.417 0.0149,-0.6255 0.0029,-0.14532 0.0144,-0.2908 0.01113,-0.436 -0.01519,-0.12796 -0.132437,-0.23071 -0.261284,-0.22898 z" />
        <path
           id="path297"
           style="color:#000000;font-style:normal;font-variant:normal;font-weight:normal;font-stretch:normal;font-size:medium;line-height:normal;font-family:sans-serif;font-variant-ligatures:normal;font-variant-position:normal;font-variant-caps:normal;font-variant-numeric:normal;font-variant-alternates:normal;font-variant-east-asian:normal;font-feature-settings:normal;font-variation-settings:normal;text-indent:0;text-align:start;text-decoration:none;text-decoration-line:none;text-decoration-style:solid;text-decoration-color:#000000;letter-spacing:normal;word-spacing:normal;text-transform:none;writing-mode:lr-tb;direction:ltr;text-orientation:mixed;dominant-baseline:auto;baseline-shift:baseline;text-anchor:start;white-space:normal;shape-padding:0;shape-margin:0;inline-size:0;clip-rule:nonzero;display:inline;overflow:visible;visibility:visible;isolation:auto;mix-blend-mode:normal;color-interpolation:sRGB;color-interpolation-filters:linearRGB;solid-color:#000000;solid-opacity:1;vector-effect:none;fill:#50b85a;fill-opacity:1;fill-rule:nonzero;stroke:none;stroke-width:0.529167;stroke-linecap:round;stroke-linejoin:round;stroke-miterlimit:4;stroke-dasharray:none;stroke-dashoffset:0;stroke-opacity:1;color-rendering:auto;image-rendering:auto;shape-rendering:auto;text-rendering:auto;enable-background:accumulate;stop-color:#000000"
           d="m -37.081973,328.48955 c -0.463875,0.10383 -0.821039,0.30464 -1.282062,0.0584 -0.460798,-0.11089 -0.739713,0.4962 -0.824898,0.92474 -0.10195,0.36773 -0.622901,-0.31515 -0.9666,-0.14761 -0.665239,0.0176 -0.871528,0.77123 -0.738099,1.3694 0.174469,0.42414 -0.527351,0.42395 -0.599384,0.84107 -0.278741,0.31412 -0.03823,0.88151 -0.427911,0.92013 -0.727551,0.0415 -1.205092,0.83301 -1.073292,1.56553 -0.03085,0.46913 0.577128,0.57614 0.37066,1.01502 -0.143267,0.61268 0.606926,1.26036 1.270308,1.27221 0.377201,-0.031 0.315012,0.0597 0.307534,0.55487 0.105387,0.59814 0.581507,0.96684 1.197044,0.79961 0.49939,-0.0616 0.802958,-0.74634 1.041586,-0.94353 0.267385,0.55333 1.117717,0.59868 1.65498,0.46744 0.371055,0.079 0.552384,-0.56963 0.706512,-0.45017 0.280056,0.56637 0.92727,1.26353 1.575335,0.97748 0.532474,-0.20367 0.627249,-0.92974 0.725434,-1.43595 0.545795,0.21561 1.131391,0.0476 1.314969,-0.54964 0.182706,-0.53415 -0.168124,-1.03985 0.270145,-1.48118 0.325771,-0.66527 0.217132,-1.48676 -0.510069,-1.71102 -0.443532,-0.0552 -0.661387,-0.10571 -0.448098,-0.56981 0.117589,-0.53697 -0.36228,-0.90297 -0.781639,-1.16547 0.189809,-0.5771 0.06043,-1.34936 -0.606669,-1.50699 -0.386538,-0.16295 -0.885742,0.34413 -1.146184,0.37199 -0.07443,-0.51542 -0.486693,-1.24613 -1.029604,-1.17653 z"
           sodipodi:nodetypes="sccccccccccccccccccccccccs" />
        <path
           id="path318"
           style="color:#000000;font-style:normal;font-variant:normal;font-weight:normal;font-stretch:normal;font-size:medium;line-height:normal;font-family:sans-serif;font-variant-ligatures:normal;font-variant-position:normal;font-variant-caps:normal;font-variant-numeric:normal;font-variant-alternates:normal;font-variant-east-asian:normal;font-feature-settings:normal;font-variation-settings:normal;text-indent:0;text-align:start;text-decoration:none;text-decoration-line:none;text-decoration-style:solid;text-decoration-color:#000000;letter-spacing:normal;word-spacing:normal;text-transform:none;writing-mode:lr-tb;direction:ltr;text-orientation:mixed;dominant-baseline:auto;baseline-shift:baseline;text-anchor:start;white-space:normal;shape-padding:0;shape-margin:0;inline-size:0;clip-rule:nonzero;display:inline;overflow:visible;visibility:visible;opacity:1;isolation:auto;mix-blend-mode:normal;color-interpolation:sRGB;color-interpolation-filters:linearRGB;solid-color:#000000;solid-opacity:1;vector-effect:none;fill:#66342d;fill-opacity:1;fill-rule:nonzero;stroke:none;stroke-width:0.529167;stroke-linecap:round;stroke-linejoin:round;stroke-miterlimit:4;stroke-dasharray:none;stroke-dashoffset:0;stroke-opacity:1;color-rendering:auto;image-rendering:auto;shape-rendering:auto;text-rendering:auto;enable-background:accumulate;stop-color:#000000;stop-opacity:1"
           d="m -39.792969,340.33789 c -0.325012,-0.0182 -0.353443,0.51111 -0.02837,0.52789 1.420192,0.003 2.840537,4.7e-4 4.260788,0.001 0.32619,0.0181 0.352777,-0.51357 0.02642,-0.52808 -1.419551,-0.003 -2.839246,-4.1e-4 -4.258838,-0.001 z" />
        <path
           id="path320"
           style="fill:#46a05d;fill-opacity:1;stroke:none;stroke-width:0.264583px;stroke-linecap:butt;stroke-linejoin:miter;stroke-opacity:1"
           d="m -37.081973,328.48955 c -0.441407,0.0623 -0.779695,0.33852 -1.211373,0.0696 -0.39361,-0.11106 -0.715525,0.29379 -0.826124,0.69434 -0.06877,0.23747 -0.224114,0.27102 -0.477817,0.0288 -0.516308,-0.28735 -1.144209,-0.0997 -1.362651,0.49813 -0.103963,0.32799 -0.394386,0.99996 0.09846,1.01027 1.443532,0.28777 2.941172,0.94637 3.734485,2.25111 0.691007,1.12015 0.765572,2.4995 0.605713,3.77437 0.268632,0.54552 0.815608,1.10313 1.476492,0.95342 0.54034,-0.10493 0.750057,-0.91248 0.841166,-1.41317 0.02905,-0.4414 0.605756,0.12708 0.902391,-0.14707 0.600126,-0.2514 0.751248,-0.86652 0.516737,-1.42371 0.485412,-0.53641 0.758035,-1.43946 0.181563,-1.96404 -0.237988,-0.31355 -0.801021,-0.31633 -1.013262,-0.44298 0.134586,-0.39377 0.06532,-0.80186 -0.237985,-1.13837 -0.241292,-0.29705 -0.651015,-0.42478 -0.447273,-0.8629 0.06021,-0.54234 -0.252008,-0.92609 -0.833475,-0.9519 -0.337957,-0.0914 -0.708617,0.31441 -0.925102,0.30958 -0.08353,-0.37635 -0.257801,-1.16136 -0.686461,-1.21528 -0.109672,-0.0258 -0.222985,-0.0355 -0.335481,-0.0302 z"
           sodipodi:nodetypes="ccccccccccccccccccccc" />
        <path
           id="path1164"
           style="color:#000000;font-style:normal;font-variant:normal;font-weight:normal;font-stretch:normal;font-size:medium;line-height:normal;font-family:sans-serif;font-variant-ligatures:normal;font-variant-position:normal;font-variant-caps:normal;font-variant-numeric:normal;font-variant-alternates:normal;font-variant-east-asian:normal;font-feature-settings:normal;font-variation-settings:normal;text-indent:0;text-align:start;text-decoration:none;text-decoration-line:none;text-decoration-style:solid;text-decoration-color:#000000;letter-spacing:normal;word-spacing:normal;text-transform:none;writing-mode:lr-tb;direction:ltr;text-orientation:mixed;dominant-baseline:auto;baseline-shift:baseline;text-anchor:start;white-space:normal;shape-padding:0;shape-margin:0;inline-size:0;clip-rule:nonzero;display:inline;overflow:visible;visibility:visible;opacity:1;isolation:auto;mix-blend-mode:normal;color-interpolation:sRGB;color-interpolation-filters:linearRGB;solid-color:#000000;solid-opacity:1;vector-effect:none;fill:#3f8f54;fill-opacity:1;fill-rule:nonzero;stroke:none;stroke-width:0.529167;stroke-linecap:round;stroke-linejoin:round;stroke-miterlimit:4;stroke-dasharray:none;stroke-dashoffset:0;stroke-opacity:1;color-rendering:auto;image-rendering:auto;shape-rendering:auto;text-rendering:auto;enable-background:accumulate;stop-color:#000000;stop-opacity:1"
           d="m -38.318074,328.48593 c -0.38819,-0.008 -0.769095,0.39397 -0.866166,0.80325 -0.05219,0.22304 -0.165577,0.35357 -0.387392,0.1479 -0.477972,-0.25486 -1.169866,-0.35346 -1.456574,0.15728 -0.192201,0.33484 0.0529,0.81603 0.149888,1.17952 -0.486494,0.28433 -1.075424,0.75677 -1.002542,1.33463 0.05527,0.62912 0.45267,1.18175 0.910883,1.58858 0.291345,0.15745 0.53686,-0.30278 0.25956,-0.47149 -0.394731,-0.40577 -0.801101,-0.98669 -0.58922,-1.57771 0.100976,-0.29381 0.357605,-0.49203 0.620621,-0.63399 0.243457,-0.25937 -0.133924,-0.58269 -0.03108,-0.88583 0.04871,-0.43821 0.601468,-0.59323 0.951017,-0.40305 0.215977,0.11357 0.535024,0.50013 0.736295,0.14079 0.03118,-0.28049 0.0834,-0.60853 0.36002,-0.75996 0.277083,-0.18142 0.631836,-0.0789 0.882724,0.0973 0.311142,0.0752 0.563356,-0.31026 0.89651,-0.17566 0.344688,0.0738 0.551406,0.43292 0.532557,0.7699 0.09429,0.38546 0.505477,0.16204 0.674382,-0.0302 0.340518,-0.22902 0.938732,-0.13317 1.026999,0.31913 0.116238,0.3078 -0.222186,0.61009 -0.05822,0.89244 0.263785,0.17837 0.56873,0.36212 0.66243,0.69319 0.192072,0.58627 -0.207942,1.15199 -0.59711,1.55342 -0.287407,0.17427 -0.01546,0.64309 0.273486,0.46242 0.538229,-0.48691 1.003298,-1.19959 0.881985,-1.95829 -0.04545,-0.43259 -0.678474,-0.66481 -1.01953,-0.89135 0.198292,-0.5494 0.321027,-1.23366 -0.259445,-1.47986 -0.417408,-0.18221 -0.820628,-0.12435 -1.183437,0.12241 -0.09879,-0.3396 -0.289062,-0.84766 -0.694793,-0.92134 -0.389484,-0.17115 -0.784977,0.29903 -1.113804,0.0522 -0.175234,-0.0797 -0.367511,-0.12561 -0.560045,-0.12557 z"
           sodipodi:nodetypes="ccccccccccccccccccccccccccccccc" />
      </g>
      <path
         id="path2117"
         style="color:#000000;font-style:normal;font-variant:normal;font-weight:normal;font-stretch:normal;font-size:medium;line-height:normal;font-family:sans-serif;font-variant-ligatures:normal;font-variant-position:normal;font-variant-caps:normal;font-variant-numeric:normal;font-variant-alternates:normal;font-variant-east-asian:normal;font-feature-settings:normal;font-variation-settings:normal;text-indent:0;text-align:start;text-decoration:none;text-decoration-line:none;text-decoration-style:solid;text-decoration-color:#000000;letter-spacing:normal;word-spacing:normal;text-transform:none;writing-mode:lr-tb;direction:ltr;text-orientation:mixed;dominant-baseline:auto;baseline-shift:baseline;text-anchor:start;white-space:normal;shape-padding:0;shape-margin:0;inline-size:0;clip-rule:nonzero;display:inline;overflow:visible;visibility:visible;opacity:1;isolation:auto;mix-blend-mode:normal;color-interpolation:sRGB;color-interpolation-filters:linearRGB;solid-color:#000000;solid-opacity:1;vector-effect:none;fill:#000000;fill-opacity:1;fill-rule:nonzero;stroke:none;stroke-width:0.529167;stroke-linecap:round;stroke-linejoin:round;stroke-miterlimit:4;stroke-dasharray:none;stroke-dashoffset:0;stroke-opacity:1;color-rendering:auto;image-rendering:auto;shape-rendering:auto;text-rendering:auto;enable-background:accumulate;stop-color:#000000;stop-opacity:1"
         d="m -38.242627,328.48904 c -0.235603,-0.0154 -0.46124,0.0347 -0.653709,0.14159 -0.271862,0.15104 -0.351604,0.48468 -0.447516,0.79323 -0.433932,-0.28841 -0.938212,-0.38389 -1.337903,-0.16588 -0.437316,0.23854 -0.615921,0.81287 -0.429432,1.47226 -0.306631,0.20352 -0.586528,0.44234 -0.697632,0.77153 -0.09118,0.27016 -0.09955,0.5686 -0.02687,0.87075 -0.477178,0.0383 -0.901859,0.32018 -1.133263,0.72295 -0.279831,0.48706 -0.212688,1.15867 0.265615,1.73065 -0.205436,0.5577 -0.09391,1.10078 0.254249,1.41025 0.306991,0.27288 0.75012,0.30874 1.169956,0.17001 0.08472,0.39291 0.181371,0.76824 0.368969,0.99012 0.238601,0.28222 0.568688,0.41623 0.886767,0.39429 0.511228,-0.0353 0.91807,-0.44901 1.193207,-0.97823 0.02373,0.0293 0.0422,0.0631 0.06253,0.0956 0.05191,0.94155 0.03223,1.88117 -0.0801,2.72852 -0.0495,0.0804 -0.174379,0.19726 -0.251663,0.27337 -0.118018,0.11592 -0.262131,0.24686 -0.352436,0.42788 h -0.341064 c -0.146124,-5.3e-4 -0.265044,0.11742 -0.265615,0.26355 -5.29e-4,0.14693 0.118681,0.26619 0.265615,0.26561 1.410486,1.9e-4 2.823451,0 4.232302,0 0.146933,5.3e-4 0.266192,-0.11868 0.265615,-0.26561 -5.29e-4,-0.14613 -0.119491,-0.26412 -0.265615,-0.26355 h -0.341067 c -0.0903,-0.18102 -0.234418,-0.31196 -0.352433,-0.42788 -0.08346,-0.0638 -0.222371,-0.19196 -0.251664,-0.27337 -0.135765,-0.94112 -0.115567,-1.75477 -0.08217,-2.72335 0.02103,-0.0335 0.04006,-0.0685 0.0646,-0.0987 0.275223,0.5284 0.682477,0.94094 1.19321,0.97617 0.31808,0.0219 0.65023,-0.11207 0.888834,-0.39429 0.187571,-0.22185 0.282181,-0.59729 0.366903,-0.99012 0.419838,0.13872 0.862962,0.10286 1.169955,-0.17002 0.348155,-0.30947 0.459685,-0.85255 0.254249,-1.41025 0.478303,-0.57198 0.545447,-1.24358 0.265615,-1.73064 -0.231322,-0.40264 -0.655775,-0.6845 -1.132747,-0.72296 0.07326,-0.30215 0.06534,-0.60058 -0.02585,-0.87074 -0.110987,-0.32884 -0.390975,-0.56806 -0.697116,-0.77153 0.186417,-0.65933 0.0058,-1.23375 -0.431499,-1.47227 -0.400237,-0.21831 -0.834653,-0.16753 -1.268945,0.12198 -0.09569,-0.30932 -0.244106,-0.59801 -0.516476,-0.74933 -0.344747,-0.19152 -0.795351,-0.19838 -1.219563,0.0243 -0.187383,-0.0983 -0.379444,-0.15373 -0.565856,-0.16588 z m 0.713137,0.69252 c 0.329136,-0.21942 0.60611,-0.20473 0.816488,-0.0879 0.210378,0.11688 0.276984,0.36828 0.359667,0.66043 9e-5,0.2353 0.284239,0.35345 0.451136,0.18758 0.324119,-0.32413 0.728749,-0.35407 0.976166,-0.21911 0.247418,0.13495 0.409597,0.41262 0.177769,0.99219 -0.05077,0.12755 0.0044,0.27275 0.127124,0.33435 0.300419,0.15309 0.491138,0.37069 0.576191,0.6227 0.08506,0.252 0.06977,0.54833 -0.09767,0.88315 -0.116903,0.22586 -0.298497,0.46852 -0.546737,0.71675 -0.103646,0.10338 -0.103646,0.27128 0,0.37466 0.10338,0.10364 0.271274,0.10364 0.374655,0 0.243874,-0.24387 0.435115,-0.4917 0.578776,-0.74053 0.371739,-0.0478 0.716171,0.1478 0.891933,0.45372 0.191768,0.33377 0.203732,0.77295 -0.257347,1.23404 -0.08108,0.0809 -0.100887,0.20479 -0.04909,0.30695 0.2212,0.44239 0.106773,0.75087 -0.10542,0.93948 -0.212191,0.18862 -0.533143,0.24556 -0.834057,0.045 -0.163737,-0.11015 -0.386085,-0.009 -0.41031,0.18707 -0.06194,0.4955 -0.199848,0.81034 -0.345715,0.98288 -0.145871,0.17253 -0.285526,0.21992 -0.447001,0.20877 -0.322953,-0.0223 -0.766151,-0.39272 -0.93948,-0.97048 -0.07784,-0.25609 -0.44319,-0.24795 -0.509529,0.0114 -0.04655,0.18618 -0.170519,0.32686 -0.345715,0.4315 -0.175194,0.10464 -0.398508,0.16227 -0.588076,0.16227 -0.189572,0 -0.414952,-0.0576 -0.590145,-0.16227 -0.175197,-0.10464 -0.298654,-0.24532 -0.3452,-0.4315 -0.06564,-0.26054 -0.432863,-0.26873 -0.510048,-0.0114 -0.173325,0.57776 -0.616521,0.94821 -0.939477,0.97048 -0.161475,0.0111 -0.301133,-0.0362 -0.447,-0.20877 -0.14587,-0.17254 -0.283776,-0.48738 -0.345715,-0.98288 -0.02424,-0.19585 -0.246573,-0.29722 -0.410311,-0.18707 -0.300913,0.2006 -0.621866,0.14366 -0.834059,-0.045 -0.212191,-0.18861 -0.326615,-0.49709 -0.105418,-0.93948 0.05179,-0.10216 0.03198,-0.22605 -0.04909,-0.30695 -0.461079,-0.46109 -0.449115,-0.90027 -0.25735,-1.23404 0.175765,-0.30592 0.520195,-0.50155 0.891937,-0.45372 0.143661,0.24883 0.334901,0.49666 0.578776,0.74053 0.10338,0.10364 0.271272,0.10364 0.374652,0 0.103646,-0.10338 0.103646,-0.27128 0,-0.37466 -0.248562,-0.24856 -0.429844,-0.49064 -0.546735,-0.71675 v -0.002 c -0.166407,-0.33391 -0.182536,-0.62963 -0.09767,-0.88108 0.08505,-0.25201 0.275776,-0.46961 0.576192,-0.6227 0.122692,-0.0616 0.177897,-0.2068 0.127124,-0.33435 -0.231828,-0.57957 -0.06965,-0.85724 0.177766,-0.99219 0.247417,-0.13496 0.652049,-0.10502 0.976169,0.21911 0.166897,0.16587 0.451046,0.0477 0.451136,-0.18758 0.07441,-0.29215 0.151355,-0.54355 0.361733,-0.66043 0.10519,-0.0584 0.226079,-0.0913 0.362252,-0.0822 v -10e-6 h -3e-6 c 0.136176,0.009 0.287602,0.0603 0.45217,0.17001 0.03251,0.0216 0.0694,0.0357 0.131784,0.0408 0.06239,0.005 0.116776,-0.0102 0.162774,-0.0407 z m -0.692984,8.15086 c 0.180491,0.0616 0.366925,0.0951 0.546738,0.0951 0.17989,0 0.36571,-0.0335 0.545703,-0.0951 -0.03671,0.82549 0.0018,1.62937 0.100761,2.37453 0.0205,0.1534 0.09798,0.25447 0.172083,0.3421 0.09666,0.10481 0.18915,0.19886 0.276984,0.28887 h -2.193147 c 0.09025,-0.0979 0.195072,-0.20347 0.277503,-0.28887 0.0741,-0.0876 0.151066,-0.1887 0.171564,-0.3421 0.107301,-0.8246 0.131953,-1.55127 0.101811,-2.37453 z"
         sodipodi:nodetypes="sscscscscscssccccccsccsccccccsscscscscscscsscsccsccscccccsccsccscccsssccssccsccsccccccsccsccssccssccccccccsscc" />
    </g>
  </g>
</svg>
