<?xml version="1.0" encoding="UTF-8" standalone="no"?>
<svg
   xmlns:dc="http://purl.org/dc/elements/1.1/"
   xmlns:cc="http://creativecommons.org/ns#"
   xmlns:rdf="http://www.w3.org/1999/02/22-rdf-syntax-ns#"
   xmlns:svg="http://www.w3.org/2000/svg"
   xmlns="http://www.w3.org/2000/svg"
   xmlns:sodipodi="http://sodipodi.sourceforge.net/DTD/sodipodi-0.dtd"
   xmlns:inkscape="http://www.inkscape.org/namespaces/inkscape"
   inkscape:export-ydpi="576"
   inkscape:export-xdpi="576"
   inkscape:export-filename="D:\project oktober adnan\Flat(export)\PNG\13 - Autumn.png"
   sodipodi:docname="14 - Winter.svg"
   inkscape:version="1.0 (4035a4fb49, 2020-05-01)"
   id="svg831"
   version="1.1"
   viewBox="0 0 22.577778 22.577778"
   height="64pt"
   width="64pt">
  <defs
     id="defs825">
    <pattern
       y="0"
       x="0"
       height="6"
       width="6"
       patternUnits="userSpaceOnUse"
       id="EMFhbasepattern" />
    <pattern
       y="0"
       x="0"
       height="6"
       width="6"
       patternUnits="userSpaceOnUse"
       id="EMFhbasepattern-9" />
    <pattern
       y="0"
       x="0"
       height="6"
       width="6"
       patternUnits="userSpaceOnUse"
       id="EMFhbasepattern-0" />
    <pattern
       y="0"
       x="0"
       height="6"
       width="6"
       patternUnits="userSpaceOnUse"
       id="EMFhbasepattern-7" />
    <pattern
       y="0"
       x="0"
       height="6"
       width="6"
       patternUnits="userSpaceOnUse"
       id="EMFhbasepattern-2" />
    <pattern
       y="0"
       x="0"
       height="6"
       width="6"
       patternUnits="userSpaceOnUse"
       id="EMFhbasepattern-98" />
    <pattern
       y="0"
       x="0"
       height="6"
       width="6"
       patternUnits="userSpaceOnUse"
       id="EMFhbasepattern-6" />
    <pattern
       y="0"
       x="0"
       height="6"
       width="6"
       patternUnits="userSpaceOnUse"
       id="EMFhbasepattern-01" />
    <pattern
       y="0"
       x="0"
       height="6"
       width="6"
       patternUnits="userSpaceOnUse"
       id="EMFhbasepattern-07" />
    <pattern
       y="0"
       x="0"
       height="6"
       width="6"
       patternUnits="userSpaceOnUse"
       id="EMFhbasepattern-8" />
    <pattern
       y="0"
       x="0"
       height="6"
       width="6"
       patternUnits="userSpaceOnUse"
       id="EMFhbasepattern-4" />
    <pattern
       y="0"
       x="0"
       height="6"
       width="6"
       patternUnits="userSpaceOnUse"
       id="EMFhbasepattern-40" />
    <pattern
       y="0"
       x="0"
       height="6"
       width="6"
       patternUnits="userSpaceOnUse"
       id="EMFhbasepattern-08" />
    <pattern
       y="0"
       x="0"
       height="6"
       width="6"
       patternUnits="userSpaceOnUse"
       id="EMFhbasepattern-04" />
    <pattern
       y="0"
       x="0"
       height="6"
       width="6"
       patternUnits="userSpaceOnUse"
       id="EMFhbasepattern-014" />
    <pattern
       y="0"
       x="0"
       height="6"
       width="6"
       patternUnits="userSpaceOnUse"
       id="EMFhbasepattern-27" />
    <pattern
       y="0"
       x="0"
       height="6"
       width="6"
       patternUnits="userSpaceOnUse"
       id="EMFhbasepattern-09" />
    <pattern
       y="0"
       x="0"
       height="6"
       width="6"
       patternUnits="userSpaceOnUse"
       id="EMFhbasepattern-5" />
    <pattern
       y="0"
       x="0"
       height="6"
       width="6"
       patternUnits="userSpaceOnUse"
       id="EMFhbasepattern-018" />
  </defs>
  <sodipodi:namedview
     inkscape:lockguides="true"
     inkscape:document-rotation="0"
     inkscape:snap-global="true"
     inkscape:snap-nodes="false"
     inkscape:bbox-nodes="true"
     inkscape:snap-bbox="true"
     showguides="true"
     inkscape:snap-midpoints="true"
     inkscape:snap-smooth-nodes="true"
     inkscape:snap-intersection-paths="true"
     inkscape:object-paths="true"
     inkscape:showpageshadow="false"
     inkscape:pagecheckerboard="true"
     inkscape:window-maximized="1"
     inkscape:window-y="-8"
     inkscape:window-x="-8"
     inkscape:window-height="706"
     inkscape:window-width="1366"
     units="pt"
     showgrid="false"
     inkscape:current-layer="layer1"
     inkscape:document-units="pt"
     inkscape:cy="42.778201"
     inkscape:cx="34.109987"
     inkscape:zoom="4.4415145"
     inkscape:pageshadow="2"
     inkscape:pageopacity="0.0"
     borderopacity="1.0"
     bordercolor="#666666"
     pagecolor="#ffffff"
     id="base">
    <inkscape:grid
       id="grid1378"
       type="xygrid" />
    <sodipodi:guide
       inkscape:locked="true"
       id="guide1380"
       orientation="78.000048,0"
       position="0.97013831,21.607643" />
    <sodipodi:guide
       inkscape:locked="true"
       id="guide1382"
       orientation="0,78.000005"
       position="0.97013831,0.97013129" />
    <sodipodi:guide
       inkscape:locked="true"
       id="guide1384"
       orientation="-78.000048,0"
       position="21.607639,0.97013129" />
    <sodipodi:guide
       inkscape:locked="true"
       id="guide1386"
       orientation="0,-78.000005"
       position="21.607639,21.607643" />
  </sodipodi:namedview>
  <metadata
     id="metadata828">
    <rdf:RDF>
      <cc:Work
         rdf:about="">
        <dc:format>image/svg+xml</dc:format>
        <dc:type
           rdf:resource="http://purl.org/dc/dcmitype/StillImage" />
        <dc:title></dc:title>
      </cc:Work>
    </rdf:RDF>
  </metadata>
  <g
     transform="translate(0,-274.42223)"
     id="layer1"
     inkscape:groupmode="layer"
     inkscape:label="Icon">
    <g
       transform="matrix(1.2626326,0,0,1.2627858,-37.743719,-40.08771)"
       style="display:inline;opacity:1;stroke-width:0.791948"
       id="g1377">
      <path
         style="fill:none;stroke:#f5f6e8;stroke-width:0.419073;stroke-linecap:round;stroke-linejoin:round;stroke-opacity:1"
         d="M 30.89007,265.70338 H 46.765051"
         id="path1051" />
      <path
         style="color:#000000;font-style:normal;font-variant:normal;font-weight:normal;font-stretch:normal;font-size:medium;line-height:normal;font-family:sans-serif;font-variant-ligatures:normal;font-variant-position:normal;font-variant-caps:normal;font-variant-numeric:normal;font-variant-alternates:normal;font-variant-east-asian:normal;font-feature-settings:normal;font-variation-settings:normal;text-indent:0;text-align:start;text-decoration:none;text-decoration-line:none;text-decoration-style:solid;text-decoration-color:#000000;letter-spacing:normal;word-spacing:normal;text-transform:none;writing-mode:lr-tb;direction:ltr;text-orientation:mixed;dominant-baseline:auto;baseline-shift:baseline;text-anchor:start;white-space:normal;shape-padding:0;shape-margin:0;inline-size:0;clip-rule:nonzero;display:inline;overflow:visible;visibility:visible;isolation:auto;mix-blend-mode:normal;color-interpolation:sRGB;color-interpolation-filters:linearRGB;solid-color:#000000;solid-opacity:1;vector-effect:none;fill:#9a605c;fill-opacity:1;fill-rule:nonzero;stroke:none;stroke-width:0.419073;stroke-linecap:round;stroke-linejoin:round;stroke-miterlimit:4;stroke-dasharray:none;stroke-dashoffset:0;stroke-opacity:1;color-rendering:auto;image-rendering:auto;shape-rendering:auto;text-rendering:auto;enable-background:accumulate;stop-color:#000000"
         d="m 38.833984,250.62109 a 0.26460996,0.26460996 0 0 0 -0.232422,0.16602 L 38.125,251.99219 a 0.26460996,0.26460996 0 0 0 -0.0098,0.0332 l -0.189453,0.76172 a 0.26460996,0.26460996 0 0 0 -0.0078,0.0469 l -0.06445,0.98243 a 0.26460996,0.26460996 0 0 0 0,0.004 l -0.0293,0.60938 -0.197266,0.81445 -1.050781,-0.0234 -0.861328,-0.50586 a 0.26460996,0.26460996 0 0 0 -0.132813,-0.0352 h -0.966797 l -0.992187,-0.12891 c -0.211278,-0.0274 -0.405713,0.10791 -0.474609,0.27734 -0.0689,0.16944 -0.02395,0.40342 0.146484,0.53126 l 0.574219,0.42968 a 0.26460996,0.26460996 0 0 0 0.08008,0.041 l 1.273437,0.39453 0.84375,0.7832 a 0.26460996,0.26460996 0 0 0 0.05469,0.0391 l 0.943359,0.51562 0.214844,0.88477 -0.07813,0.6289 -0.572266,-0.22461 a 0.26460996,0.26460996 0 0 0 -0.115234,-0.0176 l -1.296875,0.0918 -1.488281,-0.2793 a 0.26460996,0.26460996 0 0 0 -0.0039,0 l -1.880859,-0.32421 c -0.203387,-0.035 -0.39816,0.0948 -0.466797,0.25781 -0.06864,0.16301 -0.02461,0.39266 0.142578,0.51367 l 1.529297,1.10547 a 0.26460996,0.26460996 0 0 0 0.01563,0.0117 l 1.142578,0.69726 a 0.26460996,0.26460996 0 0 0 0.105469,0.0371 l 1.779297,0.21485 1.291015,0.82422 -0.3125,1.78124 a 0.26460996,0.26460996 0 0 0 0.300782,0.3086 c 0.973126,-0.15093 1.864835,-0.0875 2.794922,-0.0488 a 0.26460996,0.26460996 0 0 0 0.271484,-0.31641 l -0.269531,-1.35546 0.242187,-0.65625 1.609375,-0.40821 a 0.26460996,0.26460996 0 0 0 0.01563,-0.006 l 2.283203,-0.72851 a 0.26460996,0.26460996 0 0 0 0.05859,-0.0274 l 1.742188,-1.07031 c 0.169298,-0.1041 0.226974,-0.32673 0.167968,-0.48633 -0.059,-0.1596 -0.249012,-0.29275 -0.445312,-0.26172 l -1.796875,0.28516 -1.484375,0.1582 a 0.26460996,0.26460996 0 0 0 -0.03906,0.008 l -1.55664,0.41601 -0.417969,-0.95898 0.210937,-1.51172 a 0.26460996,0.26460996 0 0 0 -0.01758,-0.14063 l -0.380859,-0.89843 0.582031,-0.71094 1.636719,-0.62695 a 0.26460996,0.26460996 0 0 0 0.0625,-0.0332 l 1.121094,-0.83008 c 0.168182,-0.12437 0.213844,-0.35602 0.144531,-0.52148 -0.06931,-0.16546 -0.266043,-0.29624 -0.472656,-0.26367 l -1.708985,0.26953 a 0.26460996,0.26460996 0 0 0 -0.03906,0.01 l -0.996094,0.31054 -0.630859,0.10156 0.03516,-0.45507 a 0.26460996,0.26460996 0 0 0 -0.0039,-0.0762 l -0.191406,-0.88867 a 0.26460996,0.26460996 0 0 0 -0.02344,-0.0664 l -0.792969,-1.52344 a 0.26460996,0.26460996 0 0 0 -0.248047,-0.14063 z"
         id="path1227" />
      <path
         style="fill:#f5f6e8;fill-opacity:1;stroke:#f5f6e8;stroke-width:0.419073;stroke-linecap:round;stroke-linejoin:round;stroke-opacity:1"
         d="m 31.948384,265.70338 c 3.175,-2.6458 10.583333,-2.6458 13.758333,0 z"
         id="path1055"
         sodipodi:nodetypes="ccc" />
      <path
         id="path1309"
         style="color:#000000;font-style:normal;font-variant:normal;font-weight:normal;font-stretch:normal;font-size:medium;line-height:normal;font-family:sans-serif;font-variant-ligatures:normal;font-variant-position:normal;font-variant-caps:normal;font-variant-numeric:normal;font-variant-alternates:normal;font-variant-east-asian:normal;font-feature-settings:normal;font-variation-settings:normal;text-indent:0;text-align:start;text-decoration:none;text-decoration-line:none;text-decoration-style:solid;text-decoration-color:#000000;letter-spacing:normal;word-spacing:normal;text-transform:none;writing-mode:lr-tb;direction:ltr;text-orientation:mixed;dominant-baseline:auto;baseline-shift:baseline;text-anchor:start;white-space:normal;shape-padding:0;shape-margin:0;inline-size:0;clip-rule:nonzero;display:inline;overflow:visible;visibility:visible;isolation:auto;mix-blend-mode:normal;color-interpolation:sRGB;color-interpolation-filters:linearRGB;solid-color:#000000;solid-opacity:1;vector-effect:none;fill:#66342d;fill-opacity:1;fill-rule:nonzero;stroke:none;stroke-width:1.5839;stroke-linecap:round;stroke-linejoin:round;stroke-miterlimit:4;stroke-dasharray:none;stroke-dashoffset:0;stroke-opacity:1;color-rendering:auto;image-rendering:auto;shape-rendering:auto;text-rendering:auto;enable-background:accumulate;stop-color:#000000"
         d="m 120.06836,-82.205078 c -0.65942,0.0137 -1.25153,0.457005 -1.47852,0.996094 -0.25942,0.6161 -0.0928,1.484045 0.53907,1.941406 l 1.89062,1.367187 8.76953,1.246094 a 1.8295535,1.8295535 0 0 0 0.0137,0.0078 c 0.42864,0.05858 0.86714,0.01182 1.27735,-0.125 1.00224,-0.333733 1.94966,-0.823838 2.70117,-1.609375 0.45622,-0.476821 0.78719,-1.03744 1.00195,-1.640625 l -1.67968,0.11914 -5.625,-1.054687 a 1.0001006,1.0001006 0 0 0 -0.0156,0 l -7.10937,-1.226563 c -0.0961,-0.01654 -0.19096,-0.02344 -0.28516,-0.02148 z"
         transform="matrix(0.26458334,0,0,0.26458334,0,280.06666)" />
      <path
         style="color:#000000;font-style:normal;font-variant:normal;font-weight:normal;font-stretch:normal;font-size:medium;line-height:normal;font-family:sans-serif;font-variant-ligatures:normal;font-variant-position:normal;font-variant-caps:normal;font-variant-numeric:normal;font-variant-alternates:normal;font-variant-east-asian:normal;font-feature-settings:normal;font-variation-settings:normal;text-indent:0;text-align:start;text-decoration:none;text-decoration-line:none;text-decoration-style:solid;text-decoration-color:#000000;letter-spacing:normal;word-spacing:normal;text-transform:none;writing-mode:lr-tb;direction:ltr;text-orientation:mixed;dominant-baseline:auto;baseline-shift:baseline;text-anchor:start;white-space:normal;shape-padding:0;shape-margin:0;inline-size:0;clip-rule:nonzero;display:inline;overflow:visible;visibility:visible;isolation:auto;mix-blend-mode:normal;color-interpolation:sRGB;color-interpolation-filters:linearRGB;solid-color:#000000;solid-opacity:1;vector-effect:none;fill:#f5f6e8;fill-opacity:1;fill-rule:nonzero;stroke:none;stroke-width:0.419073;stroke-linecap:round;stroke-linejoin:round;stroke-miterlimit:4;stroke-dasharray:none;stroke-dashoffset:0;stroke-opacity:1;color-rendering:auto;image-rendering:auto;shape-rendering:auto;text-rendering:auto;enable-background:accumulate;stop-color:#000000"
         d="m 32.482422,257.06641 c -0.239509,0.0628 -0.614928,0.24651 -0.933594,0.53711 -0.159333,0.14529 -0.30617,0.31888 -0.353516,0.55273 -0.04734,0.23385 0.05706,0.50643 0.277344,0.69336 a 0.26460996,0.26460996 0 0 0 0.132813,0.0586 l 2.802734,0.39844 a 0.26460996,0.26460996 0 0 0 0.121094,-0.0117 c 0.217339,-0.0724 0.390307,-0.16775 0.517578,-0.30078 0.127271,-0.13302 0.19978,-0.30924 0.201172,-0.48047 0.0028,-0.34246 -0.211967,-0.62464 -0.490235,-0.85937 -0.556534,-0.46948 -1.458954,-0.80205 -2.27539,-0.58789 z"
         id="path1270" />
      <path
         id="path1317"
         style="color:#000000;font-style:normal;font-variant:normal;font-weight:normal;font-stretch:normal;font-size:medium;line-height:normal;font-family:sans-serif;font-variant-ligatures:normal;font-variant-position:normal;font-variant-caps:normal;font-variant-numeric:normal;font-variant-alternates:normal;font-variant-east-asian:normal;font-feature-settings:normal;font-variation-settings:normal;text-indent:0;text-align:start;text-decoration:none;text-decoration-line:none;text-decoration-style:solid;text-decoration-color:#000000;letter-spacing:normal;word-spacing:normal;text-transform:none;writing-mode:lr-tb;direction:ltr;text-orientation:mixed;dominant-baseline:auto;baseline-shift:baseline;text-anchor:start;white-space:normal;shape-padding:0;shape-margin:0;inline-size:0;clip-rule:nonzero;display:inline;overflow:visible;visibility:visible;isolation:auto;mix-blend-mode:normal;color-interpolation:sRGB;color-interpolation-filters:linearRGB;solid-color:#000000;solid-opacity:1;vector-effect:none;fill:#66342d;fill-opacity:1;fill-rule:nonzero;stroke:none;stroke-width:1.5839;stroke-linecap:round;stroke-linejoin:round;stroke-miterlimit:4;stroke-dasharray:none;stroke-dashoffset:0;stroke-opacity:1;color-rendering:auto;image-rendering:auto;shape-rendering:auto;text-rendering:auto;enable-background:accumulate;stop-color:#000000"
         d="m 173.53711,-80.738281 c -0.0911,-0.0037 -0.1846,9.65e-4 -0.27734,0.01563 l -6.79102,1.078125 -5.60937,0.597656 a 1.0001006,1.0001006 0 0 0 -0.14844,0.03125 l -5.4336,1.453125 c 0.006,0.01701 0.009,0.03377 0.0156,0.05078 0.6567,1.752832 2.28126,2.755634 4.03711,2.894531 0.19003,0.01512 0.37856,0.0189 0.56836,0 a 2.090097,2.090097 0 0 0 0.0371,-0.0078 l 11.17578,-1.304688 3.19726,-1.964843 c 0.63987,-0.393449 0.85778,-1.234678 0.63477,-1.837891 -0.19512,-0.527811 -0.76871,-0.979856 -1.40625,-1.005859 z"
         transform="matrix(0.26458334,0,0,0.26458334,0,280.06666)" />
      <path
         style="color:#000000;font-style:normal;font-variant:normal;font-weight:normal;font-stretch:normal;font-size:medium;line-height:normal;font-family:sans-serif;font-variant-ligatures:normal;font-variant-position:normal;font-variant-caps:normal;font-variant-numeric:normal;font-variant-alternates:normal;font-variant-east-asian:normal;font-feature-settings:normal;font-variation-settings:normal;text-indent:0;text-align:start;text-decoration:none;text-decoration-line:none;text-decoration-style:solid;text-decoration-color:#000000;letter-spacing:normal;word-spacing:normal;text-transform:none;writing-mode:lr-tb;direction:ltr;text-orientation:mixed;dominant-baseline:auto;baseline-shift:baseline;text-anchor:start;white-space:normal;shape-padding:0;shape-margin:0;inline-size:0;clip-rule:nonzero;display:inline;overflow:visible;visibility:visible;isolation:auto;mix-blend-mode:normal;color-interpolation:sRGB;color-interpolation-filters:linearRGB;solid-color:#000000;solid-opacity:1;vector-effect:none;fill:#f5f6e8;fill-opacity:1;fill-rule:nonzero;stroke:none;stroke-width:0.419073;stroke-linecap:round;stroke-linejoin:round;stroke-miterlimit:4;stroke-dasharray:none;stroke-dashoffset:0;stroke-opacity:1;color-rendering:auto;image-rendering:auto;shape-rendering:auto;text-rendering:auto;enable-background:accumulate;stop-color:#000000"
         d="m 44.853516,257.39453 c -0.803807,0.0392 -1.623206,0.22041 -1.964844,0.2793 a 0.26460996,0.26460996 0 0 0 -0.01953,0.004 c -0.592791,0.14805 -1.024018,0.57208 -1.212891,1.00977 -0.09444,0.21885 -0.134832,0.4534 -0.05078,0.67773 0.08405,0.22434 0.322336,0.38674 0.59375,0.40821 a 0.26460996,0.26460996 0 0 0 0.05273,0 l 3.820313,-0.44532 a 0.26460996,0.26460996 0 0 0 0.01172,0 c 0.457384,-0.0739 0.753446,-0.26795 0.857422,-0.54296 0.103977,-0.27501 0.0078,-0.52539 -0.07617,-0.69336 -0.166944,-0.33389 -0.498008,-0.51902 -0.853515,-0.61133 -0.355507,-0.0923 -0.7563,-0.10553 -1.158203,-0.0859 z"
         id="path1285" />
      <path
         id="path1323"
         style="color:#000000;font-style:normal;font-variant:normal;font-weight:normal;font-stretch:normal;font-size:medium;line-height:normal;font-family:sans-serif;font-variant-ligatures:normal;font-variant-position:normal;font-variant-caps:normal;font-variant-numeric:normal;font-variant-alternates:normal;font-variant-east-asian:normal;font-feature-settings:normal;font-variation-settings:normal;text-indent:0;text-align:start;text-decoration:none;text-decoration-line:none;text-decoration-style:solid;text-decoration-color:#000000;letter-spacing:normal;word-spacing:normal;text-transform:none;writing-mode:lr-tb;direction:ltr;text-orientation:mixed;dominant-baseline:auto;baseline-shift:baseline;text-anchor:start;white-space:normal;shape-padding:0;shape-margin:0;inline-size:0;clip-rule:nonzero;display:inline;overflow:visible;visibility:visible;isolation:auto;mix-blend-mode:normal;color-interpolation:sRGB;color-interpolation-filters:linearRGB;solid-color:#000000;solid-opacity:1;vector-effect:none;fill:#66342d;fill-opacity:1;fill-rule:nonzero;stroke:none;stroke-width:1.5839;stroke-linecap:round;stroke-linejoin:round;stroke-miterlimit:4;stroke-dasharray:none;stroke-dashoffset:0;stroke-opacity:1;color-rendering:auto;image-rendering:auto;shape-rendering:auto;text-rendering:auto;enable-background:accumulate;stop-color:#000000"
         d="m 164.44922,-102.01367 c -0.0956,-0.003 -0.1934,0.002 -0.29102,0.0176 l -6.45898,1.01953 a 1.0001006,1.0001006 0 0 0 -0.14844,0.0371 l -3.76367,1.173825 -2.14453,0.34375 c 0.13337,0.606149 0.35526,1.172827 0.63086,1.677734 a 1.3162849,1.3162849 0 0 0 0,0.0078 c 0.45162,0.826318 1.43791,1.313633 2.36914,1.173828 l 9.31054,-1.396484 1.44532,-1.070313 c 0.63565,-0.47006 0.80884,-1.34534 0.54687,-1.9707 -0.22921,-0.54719 -0.82705,-0.99298 -1.49609,-1.01367 z"
         transform="matrix(0.26458334,0,0,0.26458334,0,280.06666)" />
      <path
         style="color:#000000;font-style:normal;font-variant:normal;font-weight:normal;font-stretch:normal;font-size:medium;line-height:normal;font-family:sans-serif;font-variant-ligatures:normal;font-variant-position:normal;font-variant-caps:normal;font-variant-numeric:normal;font-variant-alternates:normal;font-variant-east-asian:normal;font-feature-settings:normal;font-variation-settings:normal;text-indent:0;text-align:start;text-decoration:none;text-decoration-line:none;text-decoration-style:solid;text-decoration-color:#000000;letter-spacing:normal;word-spacing:normal;text-transform:none;writing-mode:lr-tb;direction:ltr;text-orientation:mixed;dominant-baseline:auto;baseline-shift:baseline;text-anchor:start;white-space:normal;shape-padding:0;shape-margin:0;inline-size:0;clip-rule:nonzero;display:inline;overflow:visible;visibility:visible;isolation:auto;mix-blend-mode:normal;color-interpolation:sRGB;color-interpolation-filters:linearRGB;solid-color:#000000;solid-opacity:1;vector-effect:none;fill:#f5f6e8;fill-opacity:1;fill-rule:nonzero;stroke:none;stroke-width:0.419073;stroke-linecap:round;stroke-linejoin:round;stroke-miterlimit:4;stroke-dasharray:none;stroke-dashoffset:0;stroke-opacity:1;color-rendering:auto;image-rendering:auto;shape-rendering:auto;text-rendering:auto;enable-background:accumulate;stop-color:#000000"
         d="m 42.335938,252.17773 c -0.838203,0.13826 -1.365336,0.35667 -1.664063,0.69727 -0.149363,0.1703 -0.231056,0.37667 -0.236328,0.58203 -0.0053,0.20536 0.05948,0.40117 0.158203,0.58203 a 0.26460996,0.26460996 0 0 0 0.271484,0.13477 l 2.853516,-0.42774 a 0.26460996,0.26460996 0 0 0 0.09375,-0.0332 c 0.233628,-0.13667 0.403571,-0.32049 0.462891,-0.54687 0.05932,-0.22639 -0.01816,-0.47479 -0.181641,-0.64454 -0.326956,-0.33948 -0.924195,-0.46795 -1.753906,-0.34375 a 0.26460996,0.26460996 0 0 0 -0.0039,0 z"
         id="path1299" />
      <path
         id="path1145"
         style="color:#000000;font-style:normal;font-variant:normal;font-weight:normal;font-stretch:normal;font-size:medium;line-height:normal;font-family:sans-serif;font-variant-ligatures:normal;font-variant-position:normal;font-variant-caps:normal;font-variant-numeric:normal;font-variant-alternates:normal;font-variant-east-asian:normal;font-feature-settings:normal;font-variation-settings:normal;text-indent:0;text-align:start;text-decoration:none;text-decoration-line:none;text-decoration-style:solid;text-decoration-color:#000000;letter-spacing:normal;word-spacing:normal;text-transform:none;writing-mode:lr-tb;direction:ltr;text-orientation:mixed;dominant-baseline:auto;baseline-shift:baseline;text-anchor:start;white-space:normal;shape-padding:0;shape-margin:0;inline-size:0;clip-rule:nonzero;display:inline;overflow:visible;visibility:visible;isolation:auto;mix-blend-mode:normal;color-interpolation:sRGB;color-interpolation-filters:linearRGB;solid-color:#000000;solid-opacity:1;vector-effect:none;fill:#f5f6e8;fill-opacity:1;fill-rule:nonzero;stroke:none;stroke-width:1.5839;stroke-linecap:round;stroke-linejoin:round;stroke-miterlimit:4;stroke-dasharray:none;stroke-dashoffset:0;stroke-opacity:1;color-rendering:auto;image-rendering:auto;shape-rendering:auto;text-rendering:auto;enable-background:accumulate;stop-color:#000000"
         d="m 126.62109,-106.00586 a 1.0000006,1.0000006 0 0 0 -0.99609,0.99805 v 0.38672 l -0.55273,-0.27735 a 1.0000006,1.0000006 0 0 0 -0.47266,-0.10937 1.0000006,1.0000006 0 0 0 -0.87109,0.55273 1.0000006,1.0000006 0 0 0 0.44921,1.34375 l 0.21485,0.10742 -0.21485,0.10743 a 1.0000006,1.0000006 0 0 0 -0.44921,1.33593 1.0000006,1.0000006 0 0 0 1.34375,0.44922 l 0.55273,-0.27539 v 0.37891 a 1.0000006,1.0000006 0 0 0 0.99609,1.0039 1.0000006,1.0000006 0 0 0 1.00391,-1.0039 v -0.37696 l 0.54688,0.27344 a 1.0000006,1.0000006 0 0 0 1.34374,-0.44922 1.0000006,1.0000006 0 0 0 -0.44335,-1.33593 l -0.21485,-0.10743 0.21485,-0.10742 a 1.0000006,1.0000006 0 0 0 0.44335,-1.34375 1.0000006,1.0000006 0 0 0 -0.92968,-0.55273 1.0000006,1.0000006 0 0 0 -0.41406,0.10937 l -0.54688,0.27344 v -0.38281 a 1.0000006,1.0000006 0 0 0 -1.00391,-0.99805 z"
         transform="matrix(0.26458334,0,0,0.26458334,0,280.06666)" />
      <path
         id="path1240"
         style="color:#000000;font-style:normal;font-variant:normal;font-weight:normal;font-stretch:normal;font-size:medium;line-height:normal;font-family:sans-serif;font-variant-ligatures:normal;font-variant-position:normal;font-variant-caps:normal;font-variant-numeric:normal;font-variant-alternates:normal;font-variant-east-asian:normal;font-feature-settings:normal;font-variation-settings:normal;text-indent:0;text-align:start;text-decoration:none;text-decoration-line:none;text-decoration-style:solid;text-decoration-color:#000000;letter-spacing:normal;word-spacing:normal;text-transform:none;writing-mode:lr-tb;direction:ltr;text-orientation:mixed;dominant-baseline:auto;baseline-shift:baseline;text-anchor:start;white-space:normal;shape-padding:0;shape-margin:0;inline-size:0;clip-rule:nonzero;display:inline;overflow:visible;visibility:visible;opacity:1;isolation:auto;mix-blend-mode:normal;color-interpolation:sRGB;color-interpolation-filters:linearRGB;solid-color:#000000;solid-opacity:1;vector-effect:none;fill:#66342d;fill-opacity:1;fill-rule:nonzero;stroke:none;stroke-width:1.5839;stroke-linecap:round;stroke-linejoin:round;stroke-miterlimit:4;stroke-dasharray:none;stroke-dashoffset:0;stroke-opacity:1;color-rendering:auto;image-rendering:auto;shape-rendering:auto;text-rendering:auto;enable-background:accumulate;stop-color:#000000;stop-opacity:1"
         d="m 145.26172,-71.384766 a 1.0000006,1.0000006 0 0 0 -0.41406,0.111328 l -4.48633,2.337891 0.92773,0.59375 -0.22656,1.292969 4.70703,-2.445313 a 1.0000006,1.0000006 0 0 0 0.42969,-1.351562 1.0000006,1.0000006 0 0 0 -0.9375,-0.537109 z"
         transform="matrix(0.26458334,0,0,0.26458334,0,280.06666)" />
      <path
         id="path1244"
         style="color:#000000;font-style:normal;font-variant:normal;font-weight:normal;font-stretch:normal;font-size:medium;line-height:normal;font-family:sans-serif;font-variant-ligatures:normal;font-variant-position:normal;font-variant-caps:normal;font-variant-numeric:normal;font-variant-alternates:normal;font-variant-east-asian:normal;font-feature-settings:normal;font-variation-settings:normal;text-indent:0;text-align:start;text-decoration:none;text-decoration-line:none;text-decoration-style:solid;text-decoration-color:#000000;letter-spacing:normal;word-spacing:normal;text-transform:none;writing-mode:lr-tb;direction:ltr;text-orientation:mixed;dominant-baseline:auto;baseline-shift:baseline;text-anchor:start;white-space:normal;shape-padding:0;shape-margin:0;inline-size:0;clip-rule:nonzero;display:inline;overflow:visible;visibility:visible;opacity:1;isolation:auto;mix-blend-mode:normal;color-interpolation:sRGB;color-interpolation-filters:linearRGB;solid-color:#000000;solid-opacity:1;vector-effect:none;fill:#66342d;fill-opacity:1;fill-rule:nonzero;stroke:none;stroke-width:1.5839;stroke-linecap:round;stroke-linejoin:round;stroke-miterlimit:4;stroke-dasharray:none;stroke-dashoffset:0;stroke-opacity:1;color-rendering:auto;image-rendering:auto;shape-rendering:auto;text-rendering:auto;enable-background:accumulate;stop-color:#000000;stop-opacity:1"
         d="m 154.10547,-79.099609 -3.53711,2.777343 a 1.0000006,1.0000006 0 0 0 -0.16992,1.402344 1.0000006,1.0000006 0 0 0 1.40234,0.169922 l 3.65039,-2.859375 -0.62305,0.166016 z"
         transform="matrix(0.26458334,0,0,0.26458334,0,280.06666)" />
      <path
         id="path1248"
         style="color:#000000;font-style:normal;font-variant:normal;font-weight:normal;font-stretch:normal;font-size:medium;line-height:normal;font-family:sans-serif;font-variant-ligatures:normal;font-variant-position:normal;font-variant-caps:normal;font-variant-numeric:normal;font-variant-alternates:normal;font-variant-east-asian:normal;font-feature-settings:normal;font-variation-settings:normal;text-indent:0;text-align:start;text-decoration:none;text-decoration-line:none;text-decoration-style:solid;text-decoration-color:#000000;letter-spacing:normal;word-spacing:normal;text-transform:none;writing-mode:lr-tb;direction:ltr;text-orientation:mixed;dominant-baseline:auto;baseline-shift:baseline;text-anchor:start;white-space:normal;shape-padding:0;shape-margin:0;inline-size:0;clip-rule:nonzero;display:inline;overflow:visible;visibility:visible;opacity:1;isolation:auto;mix-blend-mode:normal;color-interpolation:sRGB;color-interpolation-filters:linearRGB;solid-color:#000000;solid-opacity:1;vector-effect:none;fill:#66342d;fill-opacity:1;fill-rule:nonzero;stroke:none;stroke-width:1.5839;stroke-linecap:round;stroke-linejoin:round;stroke-miterlimit:4;stroke-dasharray:none;stroke-dashoffset:0;stroke-opacity:1;color-rendering:auto;image-rendering:auto;shape-rendering:auto;text-rendering:auto;enable-background:accumulate;stop-color:#000000;stop-opacity:1"
         d="m 151.19727,-102.89258 -3.72852,5.841799 a 1.0000006,1.0000006 0 0 0 0.30273,1.380859 1.0000006,1.0000006 0 0 0 1.37891,-0.302734 l 2.26172,-3.539063 0.12305,-1.589841 a 1.0001006,1.0001006 0 0 0 -0.0137,-0.28906 z"
         transform="matrix(0.26458334,0,0,0.26458334,0,280.06666)" />
      <path
         id="path1252"
         style="color:#000000;font-style:normal;font-variant:normal;font-weight:normal;font-stretch:normal;font-size:medium;line-height:normal;font-family:sans-serif;font-variant-ligatures:normal;font-variant-position:normal;font-variant-caps:normal;font-variant-numeric:normal;font-variant-alternates:normal;font-variant-east-asian:normal;font-feature-settings:normal;font-variation-settings:normal;text-indent:0;text-align:start;text-decoration:none;text-decoration-line:none;text-decoration-style:solid;text-decoration-color:#000000;letter-spacing:normal;word-spacing:normal;text-transform:none;writing-mode:lr-tb;direction:ltr;text-orientation:mixed;dominant-baseline:auto;baseline-shift:baseline;text-anchor:start;white-space:normal;shape-padding:0;shape-margin:0;inline-size:0;clip-rule:nonzero;display:inline;overflow:visible;visibility:visible;opacity:1;isolation:auto;mix-blend-mode:normal;color-interpolation:sRGB;color-interpolation-filters:linearRGB;solid-color:#000000;solid-opacity:1;vector-effect:none;fill:#66342d;fill-opacity:1;fill-rule:nonzero;stroke:none;stroke-width:1.5839;stroke-linecap:round;stroke-linejoin:round;stroke-miterlimit:4;stroke-dasharray:none;stroke-dashoffset:0;stroke-opacity:1;color-rendering:auto;image-rendering:auto;shape-rendering:auto;text-rendering:auto;enable-background:accumulate;stop-color:#000000;stop-opacity:1"
         d="m 140.80273,-80.933594 -0.19921,1.59961 -1.66993,-0.654297 4.2168,4.419922 a 1.0000006,1.0000006 0 0 0 1.4082,0.03711 1.0000006,1.0000006 0 0 0 0.0371,-1.410156 z"
         transform="matrix(0.26458334,0,0,0.26458334,0,280.06666)" />
      <path
         d="m 35.922605,250.08723 a 0.2645835,0.2645835 0 0 0 -0.263549,0.26407 v 0.10232 l -0.146243,-0.0734 a 0.2645835,0.2645835 0 0 0 -0.125058,-0.0289 0.2645835,0.2645835 0 0 0 -0.230476,0.14624 0.2645835,0.2645835 0 0 0 0.118854,0.35553 l 0.05685,0.0284 -0.05685,0.0284 a 0.2645835,0.2645835 0 0 0 -0.118854,0.35346 0.2645835,0.2645835 0 0 0 0.355534,0.11886 l 0.146243,-0.0729 v 0.10025 a 0.2645835,0.2645835 0 0 0 0.263549,0.26561 0.2645835,0.2645835 0 0 0 0.265618,-0.26561 v -0.0997 l 0.144695,0.0724 a 0.2645835,0.2645835 0 0 0 0.355531,-0.11886 0.2645835,0.2645835 0 0 0 -0.117303,-0.35346 l -0.05684,-0.0284 0.05684,-0.0284 a 0.2645835,0.2645835 0 0 0 0.117303,-0.35553 0.2645835,0.2645835 0 0 0 -0.245978,-0.14624 0.2645835,0.2645835 0 0 0 -0.109553,0.0289 l -0.144695,0.0724 v -0.10128 a 0.2645835,0.2645835 0 0 0 -0.265618,-0.26407 z"
         style="color:#000000;font-style:normal;font-variant:normal;font-weight:normal;font-stretch:normal;font-size:medium;line-height:normal;font-family:sans-serif;font-variant-ligatures:normal;font-variant-position:normal;font-variant-caps:normal;font-variant-numeric:normal;font-variant-alternates:normal;font-variant-east-asian:normal;font-feature-settings:normal;font-variation-settings:normal;text-indent:0;text-align:start;text-decoration:none;text-decoration-line:none;text-decoration-style:solid;text-decoration-color:#000000;letter-spacing:normal;word-spacing:normal;text-transform:none;writing-mode:lr-tb;direction:ltr;text-orientation:mixed;dominant-baseline:auto;baseline-shift:baseline;text-anchor:start;white-space:normal;shape-padding:0;shape-margin:0;inline-size:0;clip-rule:nonzero;display:inline;overflow:visible;visibility:visible;isolation:auto;mix-blend-mode:normal;color-interpolation:sRGB;color-interpolation-filters:linearRGB;solid-color:#000000;solid-opacity:1;vector-effect:none;fill:#f5f6e8;fill-opacity:1;fill-rule:nonzero;stroke:none;stroke-width:0.419073;stroke-linecap:round;stroke-linejoin:round;stroke-miterlimit:4;stroke-dasharray:none;stroke-dashoffset:0;stroke-opacity:1;color-rendering:auto;image-rendering:auto;shape-rendering:auto;text-rendering:auto;enable-background:accumulate;stop-color:#000000"
         id="path1180" />
      <path
         id="path1203"
         style="color:#000000;font-style:normal;font-variant:normal;font-weight:normal;font-stretch:normal;font-size:medium;line-height:normal;font-family:sans-serif;font-variant-ligatures:normal;font-variant-position:normal;font-variant-caps:normal;font-variant-numeric:normal;font-variant-alternates:normal;font-variant-east-asian:normal;font-feature-settings:normal;font-variation-settings:normal;text-indent:0;text-align:start;text-decoration:none;text-decoration-line:none;text-decoration-style:solid;text-decoration-color:#000000;letter-spacing:normal;word-spacing:normal;text-transform:none;writing-mode:lr-tb;direction:ltr;text-orientation:mixed;dominant-baseline:auto;baseline-shift:baseline;text-anchor:start;white-space:normal;shape-padding:0;shape-margin:0;inline-size:0;clip-rule:nonzero;display:inline;overflow:visible;visibility:visible;isolation:auto;mix-blend-mode:normal;color-interpolation:sRGB;color-interpolation-filters:linearRGB;solid-color:#000000;solid-opacity:1;vector-effect:none;fill:#f5f6e8;fill-opacity:1;fill-rule:nonzero;stroke:none;stroke-width:0.419073;stroke-linecap:round;stroke-linejoin:round;stroke-miterlimit:4;stroke-dasharray:none;stroke-dashoffset:0;stroke-opacity:1;color-rendering:auto;image-rendering:auto;shape-rendering:auto;text-rendering:auto;enable-background:accumulate;stop-color:#000000"
         d="m 44.033885,254.86062 a 0.2645835,0.2645835 0 0 0 -0.263549,0.26407 v 0.10232 l -0.146243,-0.0734 a 0.2645835,0.2645835 0 0 0 -0.125058,-0.0289 0.2645835,0.2645835 0 0 0 -0.230476,0.14624 0.2645835,0.2645835 0 0 0 0.118854,0.35553 l 0.05685,0.0284 -0.05685,0.0284 a 0.2645835,0.2645835 0 0 0 -0.118854,0.35346 0.2645835,0.2645835 0 0 0 0.355534,0.11886 l 0.146243,-0.0729 v 0.10025 a 0.2645835,0.2645835 0 0 0 0.263549,0.26561 0.2645835,0.2645835 0 0 0 0.265618,-0.26561 v -0.0997 l 0.144695,0.0724 a 0.2645835,0.2645835 0 0 0 0.355531,-0.11886 0.2645835,0.2645835 0 0 0 -0.117303,-0.35346 l -0.05684,-0.0284 0.05684,-0.0284 a 0.2645835,0.2645835 0 0 0 0.117303,-0.35553 0.2645835,0.2645835 0 0 0 -0.245978,-0.14624 0.2645835,0.2645835 0 0 0 -0.109553,0.0289 l -0.144695,0.0724 v -0.10128 a 0.2645835,0.2645835 0 0 0 -0.265618,-0.26407 z" />
      <path
         id="path1329"
         style="fill:#66342d;fill-opacity:1;stroke:none;stroke-width:1.5839;stroke-linecap:round;stroke-linejoin:round;stroke-opacity:1"
         d="m 125.62109,-74.646484 3.66602,2.236328 a 1.0001006,1.0001006 0 0 0 0.39844,0.140625 l 6.72461,0.8125 4.69726,3 c 1.97519,-2.090029 -1.55407,-5.617188 -10.37304,-5.617188 -1.69801,0 -3.37925,-0.365572 -5.11329,-0.572265 z"
         transform="matrix(0.26458334,0,0,0.26458334,0,280.06666)" />
      <path
         id="path1335"
         style="fill:#66342d;fill-opacity:1;stroke:none;stroke-width:1.5839;stroke-linecap:round;stroke-linejoin:round;stroke-opacity:1"
         d="m 158.85547,-72.732422 c -3.19446,-0.02025 -6.875,0.299424 -6.875,3.185547 0,0.220346 -0.11562,1.567211 0,1.625 0.0532,0.02658 0.11537,0.04327 0.16992,0.06836 l 0.58008,-1.574218 6.08398,-1.542969 a 1.0001006,1.0001006 0 0 0 0.0586,-0.02148 l 5.29297,-1.689453 h -2.43164 c -0.80265,0 -1.81409,-0.04403 -2.87891,-0.05078 z"
         transform="matrix(0.26458334,0,0,0.26458334,0,280.06666)" />
      <path
         id="path1341"
         style="fill:#66342d;fill-opacity:1;stroke:none;stroke-width:1.5839;stroke-linecap:round;stroke-linejoin:round;stroke-opacity:1"
         d="m 131.83203,-91.548828 c -0.84369,-0.02572 -1.73412,0.04542 -2.6582,0.214844 l 3.95117,1.222656 3.18945,2.960937 a 1.0001006,1.0001006 0 0 0 0.20703,0.146485 l 3.07618,1.68164 c 2.07757,-1.316292 -1.66813,-6.040713 -7.76563,-6.226562 z"
         transform="matrix(0.26458334,0,0,0.26458334,0,280.06666)" />
      <path
         id="path1351"
         style="fill:#66342d;fill-opacity:1;stroke:none;stroke-width:1.5839;stroke-linecap:round;stroke-linejoin:round;stroke-opacity:1"
         d="m 160.83008,-95.949219 c -7.53507,9.53e-4 -9.30361,3.304016 -8.23047,5.166016 l 2.13867,-2.613281 6.1875,-2.369141 a 1.0001006,1.0001006 0 0 0 0.23633,-0.125 l 0.0625,-0.04687 c -0.12825,-0.0018 -0.26947,-0.01174 -0.39453,-0.01172 z"
         transform="matrix(0.26458334,0,0,0.26458334,0,280.06666)" />
    </g>
  </g>
</svg>
